<?xml version="1.0" standalone="no"?>
<!DOCTYPE svg PUBLIC "-//W3C//DTD SVG 20010904//EN"
 "http://www.w3.org/TR/2001/REC-SVG-20010904/DTD/svg10.dtd">
<svg version="1.0" xmlns="http://www.w3.org/2000/svg"
 width="960.000000pt" height="960.000000pt" viewBox="0 0 960.000000 960.000000"
 preserveAspectRatio="xMidYMid meet">
<metadata>
Created by potrace 1.14, written by Peter Selinger 2001-2017
</metadata>
<g transform="translate(0.000000,960.000000) scale(0.100000,-0.100000)"
fill="#000000" stroke="none">
<path d="M4215 7549 c-287 -30 -694 -141 -885 -241 -183 -96 -226 -250 -85
-303 60 -24 197 -17 280 14 73 27 194 38 252 22 42 -12 103 -68 103 -96 0 -20
5 -19 107 11 292 88 430 108 738 108 201 1 271 -3 355 -18 245 -43 464 -125
656 -246 111 -70 95 -58 212 -161 103 -90 205 -203 260 -289 20 -30 41 -61 48
-67 25 -26 134 -261 168 -363 19 -58 44 -157 56 -220 27 -141 37 -398 21 -524
-6 -49 -9 -91 -7 -93 8 -8 27 127 43 301 15 169 15 190 -1 350 -21 207 -34
270 -92 451 -154 477 -470 867 -899 1110 -55 31 -127 68 -160 82 -33 14 -78
33 -100 43 -22 10 -74 27 -115 39 -41 12 -95 28 -120 36 -62 18 -197 42 -312
55 -112 12 -405 11 -523 -1z"/>
<path d="M4923 6610 c-27 -16 -33 -26 -33 -55 0 -57 35 -85 105 -85 67 0 114
-18 143 -55 29 -37 28 -63 -7 -111 -17 -23 -27 -45 -22 -52 4 -6 42 -16 84
-22 377 -53 664 -260 813 -587 102 -222 119 -554 42 -818 -40 -137 -115 -307
-191 -430 -27 -44 -151 -211 -167 -225 -23 -20 -101 -112 -85 -100 93 71 238
213 310 305 191 246 297 466 352 727 23 116 27 155 26 303 0 148 -4 185 -28
290 -41 181 -127 344 -260 493 -142 160 -298 268 -510 354 -78 32 -181 57
-299 73 -155 21 -233 20 -273 -5z m977 -2210 c0 -5 -5 -10 -11 -10 -5 0 -7 5
-4 10 3 6 8 10 11 10 2 0 4 -4 4 -10z"/>
<path d="M5988 5353 c-34 -73 -140 -240 -203 -318 -163 -203 -376 -396 -564
-512 -100 -61 -321 -165 -427 -201 -466 -157 -954 -160 -1399 -10 -93 32 -199
72 -205 78 -8 8 -102 51 -105 48 -7 -7 275 -238 290 -238 2 0 38 -22 78 -49
40 -27 120 -73 178 -101 102 -51 129 -62 219 -94 25 -9 54 -21 65 -25 32 -14
200 -60 310 -83 87 -19 132 -22 335 -22 254 0 263 1 483 71 289 91 566 300
736 557 39 59 71 109 71 111 0 3 16 37 35 76 90 186 125 336 132 572 3 103 3
187 -1 187 -3 0 -16 -21 -28 -47z m-2573 -1071 c-3 -3 -11 0 -18 7 -9 10 -8
11 6 5 10 -3 15 -9 12 -12z"/>
<path d="M2458 3392 c-10 -31 -42 -138 -71 -237 l-54 -180 65 -3 c45 -2 68 1
73 10 4 7 18 50 31 95 12 46 27 82 32 80 4 -1 19 -30 31 -63 47 -124 47 -124
120 -124 36 0 65 2 65 4 0 3 -27 61 -61 129 l-61 125 43 39 c24 22 60 54 79
70 19 17 55 49 80 72 l45 41 -65 0 -65 -1 -85 -79 c-47 -43 -86 -75 -88 -71
-1 4 7 36 18 70 11 35 20 68 20 72 0 5 -30 9 -67 9 l-68 0 -17 -58z"/>
<path d="M2931 3375 c-20 -68 -26 -77 -56 -89 -33 -14 -104 -98 -105 -123 0
-7 15 -2 36 12 42 29 64 32 64 10 0 -9 -11 -51 -24 -93 -43 -137 -47 -122 33
-122 l69 0 16 48 c8 26 24 80 36 120 l21 72 55 0 c41 0 55 -3 51 -12 -4 -11
-45 -148 -63 -211 -5 -16 1 -18 67 -15 l72 3 18 60 c10 33 40 135 68 226 28
91 51 171 51 178 0 7 -24 11 -69 11 l-68 0 -20 -67 -20 -68 -52 -3 c-58 -3
-59 -2 -36 74 8 27 15 52 15 57 0 4 -31 7 -69 7 l-68 0 -22 -75z"/>
<path d="M3490 3438 c-52 -15 -130 -79 -163 -135 -11 -18 1 -32 12 -15 4 7 22
17 40 22 29 8 32 7 27 -8 -62 -188 -67 -248 -29 -300 26 -35 48 -40 169 -41
152 -2 161 2 179 62 8 28 15 51 15 53 0 1 -47 1 -105 1 -123 0 -144 10 -128
60 10 28 10 28 100 31 l91 3 11 31 c20 57 19 58 -74 58 -47 0 -85 3 -85 8 0 4
9 22 20 40 l20 32 109 0 109 0 10 28 c6 15 14 39 18 55 l6 27 -158 -1 c-88 0
-175 -5 -194 -11z"/>
<path d="M3907 3443 c-2 -5 -19 -55 -37 -113 -78 -250 -82 -307 -25 -344 31
-21 129 -30 229 -21 l86 7 15 51 c8 28 15 53 15 57 0 3 -48 4 -107 2 -91 -4
-108 -2 -119 12 -14 20 -4 69 45 230 17 54 31 105 31 112 0 10 -16 14 -64 14
-36 0 -67 -3 -69 -7z"/>
<path d="M4331 3413 c-6 -21 -27 -92 -47 -158 -20 -66 -42 -142 -49 -170 -8
-27 -18 -65 -24 -83 l-10 -33 187 3 c183 3 189 4 220 28 18 14 47 56 67 97 24
51 44 77 65 88 44 23 63 20 54 -7 -4 -13 -19 -65 -34 -115 l-27 -93 71 0 71 0
29 103 c40 140 38 137 96 137 28 0 50 -3 50 -7 0 -5 -16 -59 -34 -121 l-34
-113 71 3 71 3 39 125 c65 213 100 324 105 338 3 10 -12 12 -69 10 l-74 -3
-19 -67 -20 -68 -53 0 c-29 0 -53 3 -53 8 0 4 9 35 19 70 l19 63 -71 -3 -71
-3 -21 -70 c-15 -50 -28 -73 -44 -81 -13 -7 -40 -28 -61 -49 l-38 -37 16 64
c17 75 12 110 -24 141 -35 31 -59 34 -221 36 l-142 1 -10 -37z m270 -77 c9
-20 5 -44 -25 -134 -21 -61 -44 -116 -53 -123 -8 -8 -47 -15 -86 -17 -65 -4
-70 -3 -65 14 3 11 22 79 43 152 l38 132 68 0 c64 0 70 -2 80 -24z"/>
<path d="M5494 3440 c-11 -4 -32 -22 -46 -38 -25 -30 -243 -387 -254 -417 -6
-14 3 -16 67 -13 l74 3 25 47 25 48 78 0 77 0 0 -50 0 -50 65 0 65 0 0 240 0
240 -77 -1 c-43 0 -87 -4 -99 -9z m46 -200 l0 -90 -44 0 c-25 0 -48 5 -51 11
-4 5 4 27 18 47 13 21 34 56 46 80 12 23 24 42 26 42 3 0 5 -40 5 -90z"/>
<path d="M6032 3440 c-12 -5 -31 -17 -41 -27 -17 -16 -271 -428 -271 -439 0
-2 33 -4 73 -4 l72 0 27 50 28 50 75 0 75 0 0 -50 0 -50 65 0 65 0 0 240 0
240 -72 -1 c-40 0 -83 -4 -96 -9z m42 -197 l-1 -88 -52 -1 c-28 -1 -51 0 -51
2 0 2 12 25 28 51 15 26 36 65 47 86 11 20 22 37 25 37 3 0 4 -39 4 -87z"/>
<path d="M6370 3373 c-12 -43 -44 -149 -71 -236 -27 -87 -49 -160 -49 -162 0
-3 31 -5 68 -5 l68 0 20 68 19 67 45 0 45 0 24 -67 23 -68 64 0 c35 0 64 4 64
8 0 4 -9 36 -21 70 l-21 62 43 44 c68 69 96 167 67 230 -22 50 -79 66 -230 66
l-135 0 -23 -77z m254 -29 c15 -38 6 -82 -23 -113 -26 -28 -35 -31 -85 -31
-60 0 -61 1 -46 46 5 16 14 48 20 72 l11 42 58 0 c44 0 60 -4 65 -16z"/>
<path d="M7056 3435 c-35 -19 -71 -58 -96 -105 -10 -19 -61 -106 -114 -193
-53 -87 -96 -160 -96 -163 0 -2 32 -4 70 -4 l70 0 31 50 31 50 74 0 74 0 0
-50 0 -50 65 0 65 0 0 240 0 240 -72 0 c-46 0 -84 -6 -102 -15z m48 -198 l-1
-82 -44 -1 c-24 -1 -47 0 -51 3 -4 2 6 26 22 54 17 27 30 52 30 55 0 9 32 54
39 54 3 0 6 -37 5 -83z"/>
</g>
</svg>
